<?xml version="1.0" encoding="UTF-8" standalone="no"?>
<!-- Created with Inkscape (http://www.inkscape.org/) -->

<svg
   xmlns:dc="http://purl.org/dc/elements/1.1/"
   xmlns:cc="http://creativecommons.org/ns#"
   xmlns:rdf="http://www.w3.org/1999/02/22-rdf-syntax-ns#"
   xmlns:svg="http://www.w3.org/2000/svg"
   xmlns="http://www.w3.org/2000/svg"
   xmlns:sodipodi="http://sodipodi.sourceforge.net/DTD/sodipodi-0.dtd"
   xmlns:inkscape="http://www.inkscape.org/namespaces/inkscape"
   width="277.54208"
   height="235.96992"
   id="svg2"
   version="1.1"
   inkscape:version="0.48.4 r9939"
   sodipodi:docname="approx_cell_decomp.eps">
  <defs
     id="defs4" />
  <sodipodi:namedview
     id="base"
     pagecolor="#ffffff"
     bordercolor="#666666"
     borderopacity="1.0"
     inkscape:pageopacity="0.0"
     inkscape:pageshadow="2"
     inkscape:zoom="1.979899"
     inkscape:cx="151.92459"
     inkscape:cy="113.1181"
     inkscape:document-units="px"
     inkscape:current-layer="layer1"
     showgrid="false"
     inkscape:window-width="1304"
     inkscape:window-height="745"
     inkscape:window-x="54"
     inkscape:window-y="-8"
     inkscape:window-maximized="1"
     fit-margin-top="0"
     fit-margin-left="0"
     fit-margin-right="0"
     fit-margin-bottom="0" />
  <metadata
     id="metadata7">
    <rdf:RDF>
      <cc:Work
         rdf:about="">
        <dc:format>image/svg+xml</dc:format>
        <dc:type
           rdf:resource="http://purl.org/dc/dcmitype/StillImage" />
        <dc:title></dc:title>
      </cc:Work>
    </rdf:RDF>
  </metadata>
  <g
     inkscape:label="Layer 1"
     inkscape:groupmode="layer"
     id="layer1"
     transform="translate(-107.93418,-54.582069)">
    <rect
       style="fill:none;stroke:#000000;stroke-width:1;stroke-miterlimit:4;stroke-opacity:1;stroke-dasharray:none"
       id="rect2987"
       width="276.54208"
       height="234.96992"
       x="108.43418"
       y="55.082069" />
    <path
       style="fill:#e6e6e6;stroke:#000000;stroke-width:1px;stroke-linecap:butt;stroke-linejoin:miter;stroke-opacity:1"
       d="M 136.31218,114.45427 C 237.74075,84.454276 231.80239,86.474581 231.80239,86.474581 L 211.0522,180.04601 148.19506,161.47458 z"
       id="path3759"
       inkscape:connector-curvature="0"
       sodipodi:nodetypes="ccccc" />
    <rect
       style="fill:#e6e6e6;stroke:#000000;stroke-width:1;stroke-miterlimit:4;stroke-opacity:1;stroke-dasharray:none"
       id="rect3765"
       width="97.984795"
       height="97.984795"
       x="269.55841"
       y="176.50917" />
    <path
       d="m 108.42857,55.714286 0,235.969924 m 25.2,-235.969924 0,235.969924 m 25.2,-235.969924 0,235.969924 m 25.2,-235.969924 0,235.969924 m 25.2,-235.969924 0,235.969924 m 25.2,-235.969924 0,235.969924 m 25.2,-235.969924 0,235.969924 m 25.20001,-235.969924 0,235.969924 m 25.2,-235.969924 0,235.969924 m 25.2,-235.969924 0,235.969924 m 25.2,-235.969924 0,235.969924 m 25.2,-235.969924 0,235.969924 M 108.42857,55.714286 l 277.54208,0 m -277.54208,26.1 277.54208,0 m -277.54208,26.100004 277.54208,0 m -277.54208,26.1 277.54208,0 m -277.54208,26.1 277.54208,0 m -277.54208,26.1 277.54208,0 m -277.54208,26.1 277.54208,0 m -277.54208,26.1 277.54208,0 m -277.54208,26.1 277.54208,0 m -277.54208,26.1 277.54208,0"
       style="fill:none;stroke:#000000;stroke-width:0.5pt;stroke-linecap:butt;stroke-linejoin:miter;stroke-opacity:1"
       id="path3031"
       inkscape:connector-curvature="0" />
    <path
       style="fill:#a0a0a0;stroke:none"
       d="m 76.870258,124.91301 c 0,-6.3062 0.003,-6.3223 1.136422,-6.03398 0.625031,0.159 5.909392,1.70997 11.743023,3.4466 l 10.606597,3.15751 0.15148,2.87648 0.15147,2.87647 -11.894494,0 -11.894498,0 0,-6.32308 z"
       id="path3995"
       inkscape:connector-curvature="0"
       transform="translate(107.93418,54.582069)" />
    <path
       style="fill:#a0a0a0;stroke:none"
       d="m 101.619,128.54434 c 0,-2.43086 0.10535,-2.68787 1.08695,-2.65165 0.97481,0.036 1.20918,-0.50711 2.27138,-5.2632 0.65143,-2.91682 1.6583,-7.40568 2.2375,-9.97526 l 1.05308,-4.67195 8.79737,0 8.79738,0 0,12.6269 0,12.62691 -12.12183,0 -12.12183,0 0,-2.69175 z"
       id="path3997"
       inkscape:connector-curvature="0"
       transform="translate(107.93418,54.582069)" />
    <path
       style="fill:#a0a0a0;stroke:none"
       d="m 108.68052,104.59332 c -0.005,-0.20835 1.17601,-5.776813 2.62501,-12.374372 l 2.63455,-11.995561 5.96129,0 5.96129,0 0,12.374369 0,12.374364 -8.5863,0 c -4.72246,0 -8.59059,-0.17046 -8.59584,-0.3788 z"
       id="path3999"
       inkscape:connector-curvature="0"
       transform="translate(107.93418,54.582069)" />
    <path
       style="fill:#a0a0a0;stroke:none"
       d="m 114.45072,77.824275 c 0.1501,-0.486136 1.31217,-5.656855 2.58238,-11.490486 1.27022,-5.83363 2.42811,-11.004349 2.5731,-11.490485 0.2126,-0.712846 0.84344,-0.883883 3.26003,-0.883883 l 2.99643,0 0,12.374368 0,12.374369 -5.84242,0 c -5.33144,0 -5.81854,-0.0773 -5.56952,-0.883883 z"
       id="path4001"
       inkscape:connector-curvature="0"
       transform="translate(107.93418,54.582069)" />
    <path
       style="fill:#a0a0a0;stroke:none"
       d="m 122.40325,42.005652 c 1.34676,-6.018989 2.39197,-10.99373 2.32269,-11.054981 -0.0693,-0.06125 -5.12623,1.337612 -11.23765,3.108583 -6.11143,1.77097 -11.28214,3.222804 -11.49049,3.226297 -0.20834,0.0035 -0.3788,-2.152848 -0.3788,-4.791872 l 0,-4.798224 12.12183,0 12.12183,0 0,12.626906 0,12.626907 -2.95403,0 -2.95403,0 2.44865,-10.943616 z"
       id="path4003"
       inkscape:connector-curvature="0"
       transform="translate(107.93418,54.582069)" />
    <path
       style="fill:#a0a0a0;stroke:none"
       d="m 76.870258,36.265899 0,-8.570444 11.869292,0 11.86929,0 0,5.034527 0,5.034527 -4.166877,1.25117 c -2.291783,0.688143 -7.348859,2.182537 -11.237947,3.320874 -3.889087,1.138337 -7.355173,2.166474 -7.702413,2.284748 -0.48872,0.166464 -0.631345,-1.721073 -0.631345,-8.355402 z"
       id="path4005"
       inkscape:connector-curvature="0"
       transform="translate(107.93418,54.582069)" />
    <path
       style="fill:#a0a0a0;stroke:none"
       d="m 51.616444,39.817285 0,-12.12183 11.869293,0 11.869292,0 0,8.838834 c 0,4.86136 -0.118312,8.838835 -0.262917,8.838835 -0.144604,0 -5.253831,1.477348 -11.353837,3.282996 -6.100006,1.805648 -11.322875,3.282996 -11.606376,3.282996 -0.336237,0 -0.515455,-4.214611 -0.515455,-12.121831 z"
       id="path4007"
       inkscape:connector-curvature="0"
       transform="translate(107.93418,54.582069)" />
    <path
       style="fill:#a0a0a0;stroke:none"
       d="m 26.362631,40.322361 0,-12.626906 11.869292,0 11.869292,0 0,12.626906 0,12.626907 -11.869292,0 -11.869292,0 0,-12.626907 z"
       id="path4009"
       inkscape:connector-curvature="0"
       transform="translate(107.93418,54.582069)" />
    <path
       style="fill:#a0a0a0;stroke:none"
       d="m 26.362631,66.333789 0,-12.374368 9.47018,0.03129 9.47018,0.03129 -8.178405,2.428893 c -4.498122,1.335892 -8.510175,2.556206 -8.915673,2.71181 -0.613282,0.235339 -0.33067,1.902609 1.680511,9.914186 l 2.417779,9.631269 -2.972286,0 -2.972286,0 0,-12.374369 z"
       id="path4011"
       inkscape:connector-curvature="0"
       transform="translate(107.93418,54.582069)" />
    <path
       style="fill:#a0a0a0;stroke:none"
       d="m 26.362631,92.597756 0,-12.374369 3.186836,0 3.186836,0 2.960205,11.743023 c 1.628113,6.458663 3.059407,12.02713 3.180655,12.37437 0.168772,0.48335 -1.272193,0.63134 -6.147041,0.63134 l -6.367491,0 0,-12.374364 z"
       id="path4013"
       inkscape:connector-curvature="0"
       transform="translate(107.93418,54.582069)" />
    <path
       style="fill:#a0a0a0;stroke:none"
       d="m 26.362631,118.60918 0,-12.6269 6.565991,0 c 5.377041,0 6.565992,0.13165 6.565992,0.72705 0,0.64424 2.023788,1.39995 9.722718,3.63061 0.804599,0.23312 0.883883,1.1818 0.883883,10.57612 l 0,10.32003 -11.869292,0 -11.869292,0 0,-12.62691 z"
       id="path4015"
       inkscape:connector-curvature="0"
       transform="translate(107.93418,54.582069)" />
    <path
       style="fill:#a0a0a0;stroke:none"
       d="m 51.616444,121.08053 c 0,-8.32589 0.123036,-10.10835 0.682907,-9.89351 0.375598,0.14413 3.500757,1.09498 6.944798,2.11301 3.444041,1.01802 8.477915,2.52516 11.186386,3.3492 l 4.924494,1.49826 0,6.5443 0,6.5443 -11.869292,0 -11.869293,0 0,-10.15556 z"
       id="path4017"
       inkscape:connector-curvature="0"
       transform="translate(107.93418,54.582069)" />
    <path
       style="fill:#a0a0a0;stroke:none"
       d="m 152.12662,118.60918 0,-12.6269 12.12183,0 12.12183,0 0,7.57614 0,7.57615 -7.82868,0 -7.82868,0 0,5.05076 0,5.05076 -4.29315,0 -4.29315,0 0,-12.62691 z"
       id="path4019"
       inkscape:connector-curvature="0"
       transform="translate(107.93418,54.582069)" />
    <path
       style="fill:#a0a0a0;stroke:none"
       d="m 177.38044,113.55842 0,-7.57614 12.12183,0 12.12183,0 0,7.57614 0,7.57615 -12.12183,0 -12.12183,0 0,-7.57615 z"
       id="path4021"
       inkscape:connector-curvature="0"
       transform="translate(107.93418,54.582069)" />
    <path
       style="fill:#a0a0a0;stroke:none"
       d="m 202.63425,113.55842 0,-7.57614 12.12183,0 12.12183,0 0,7.57614 0,7.57615 -12.12183,0 -12.12183,0 0,-7.57615 z"
       id="path4023"
       inkscape:connector-curvature="0"
       transform="translate(107.93418,54.582069)" />
    <path
       style="fill:#a0a0a0;stroke:none"
       d="m 227.88806,113.55842 0,-7.57614 12.12183,0 12.12183,0 0,7.57614 0,7.57615 -12.12183,0 -12.12183,0 0,-7.57615 z"
       id="path4025"
       inkscape:connector-curvature="0"
       transform="translate(107.93418,54.582069)" />
    <path
       style="fill:#a0a0a0;stroke:none"
       d="m 260.21294,126.18533 0,-5.05076 -3.53553,0 -3.53553,0 0,-7.57615 0,-7.57614 11.61675,0 11.61676,0 0,12.6269 0,12.62691 -8.08122,0 -8.08123,0 0,-5.05076 z"
       id="path4027"
       inkscape:connector-curvature="0"
       transform="translate(107.93418,54.582069)" />
    <path
       style="fill:#a0a0a0;stroke:none"
       d="m 260.21294,144.62061 0,-12.37437 8.08123,0 8.08122,0 0,12.37437 0,12.37437 -8.08122,0 -8.08123,0 0,-12.37437 z"
       id="path4029"
       inkscape:connector-curvature="0"
       transform="translate(107.93418,54.582069)" />
    <path
       style="fill:#a0a0a0;stroke:none"
       d="m 260.21294,170.88458 0,-12.37437 8.08123,0 8.08122,0 0,12.37437 0,12.37437 -8.08122,0 -8.08123,0 0,-12.37437 z"
       id="path4031"
       inkscape:connector-curvature="0"
       transform="translate(107.93418,54.582069)" />
    <path
       style="fill:#a0a0a0;stroke:none"
       d="m 260.21294,196.89601 0,-12.62691 8.08123,0 8.08122,0 0,12.62691 0,12.6269 -8.08122,0 -8.08123,0 0,-12.6269 z"
       id="path4033"
       inkscape:connector-curvature="0"
       transform="translate(107.93418,54.582069)" />
    <path
       style="fill:#a0a0a0;stroke:none"
       d="m 253.14188,227.70566 0,-7.07107 3.53553,0 3.53553,0 0,-5.05076 0,-5.05076 8.08123,0 8.08122,0 0,12.12183 0,12.12183 -11.61676,0 -11.61675,0 0,-7.07107 z"
       id="path4035"
       inkscape:connector-curvature="0"
       transform="translate(107.93418,54.582069)" />
    <path
       style="fill:#a0a0a0;stroke:none"
       d="m 227.88806,227.70566 0,-7.07107 12.12183,0 12.12183,0 0,7.07107 0,7.07107 -12.12183,0 -12.12183,0 0,-7.07107 z"
       id="path4037"
       inkscape:connector-curvature="0"
       transform="translate(107.93418,54.582069)" />
    <path
       style="fill:#a0a0a0;stroke:none"
       d="m 202.63425,227.70566 0,-7.07107 12.12183,0 12.12183,0 0,7.07107 0,7.07107 -12.12183,0 -12.12183,0 0,-7.07107 z"
       id="path4039"
       inkscape:connector-curvature="0"
       transform="translate(107.93418,54.582069)" />
    <path
       style="fill:#a0a0a0;stroke:none"
       d="m 177.38044,227.70566 0,-7.07107 12.12183,0 12.12183,0 0,7.07107 0,7.07107 -12.12183,0 -12.12183,0 0,-7.07107 z"
       id="path4041"
       inkscape:connector-curvature="0"
       transform="translate(107.93418,54.582069)" />
    <path
       style="fill:#a0a0a0;stroke:none"
       d="m 152.12662,222.6549 0,-12.12183 4.29315,0 4.29315,0 0,5.05076 0,5.05076 7.82868,0 7.82868,0 0,7.07107 0,7.07107 -12.12183,0 -12.12183,0 0,-12.12183 z"
       id="path4043"
       inkscape:connector-curvature="0"
       transform="translate(107.93418,54.582069)" />
    <path
       style="fill:#a0a0a0;stroke:none"
       d="m 152.12662,196.89601 0,-12.62691 4.29315,0 4.29315,0 0,12.62691 0,12.6269 -4.29315,0 -4.29315,0 0,-12.6269 z"
       id="path4045"
       inkscape:connector-curvature="0"
       transform="translate(107.93418,54.582069)" />
    <path
       style="fill:#a0a0a0;stroke:none"
       d="m 152.12662,170.88458 0,-12.37437 4.29315,0 4.29315,0 0,12.37437 0,12.37437 -4.29315,0 -4.29315,0 0,-12.37437 z"
       id="path4047"
       inkscape:connector-curvature="0"
       transform="translate(107.93418,54.582069)" />
    <path
       style="fill:#a0a0a0;stroke:none"
       d="m 152.12662,144.62061 0,-12.37437 4.29315,0 4.29315,0 0,12.37437 0,12.37437 -4.29315,0 -4.29315,0 0,-12.37437 z"
       id="path4049"
       inkscape:connector-curvature="0"
       transform="translate(107.93418,54.582069)" />
  </g>
</svg>
