<?xml version="1.0" encoding="UTF-8" standalone="no"?>
<!-- Created with Inkscape (http://www.inkscape.org/) -->

<svg
   xmlns:dc="http://purl.org/dc/elements/1.1/"
   xmlns:cc="http://creativecommons.org/ns#"
   xmlns:rdf="http://www.w3.org/1999/02/22-rdf-syntax-ns#"
   xmlns:svg="http://www.w3.org/2000/svg"
   xmlns="http://www.w3.org/2000/svg"
   xmlns:sodipodi="http://sodipodi.sourceforge.net/DTD/sodipodi-0.dtd"
   xmlns:inkscape="http://www.inkscape.org/namespaces/inkscape"
   width="744.09448819"
   height="1052.3622047"
   id="svg2"
   version="1.1"
   inkscape:version="0.48.4 r9939"
   sodipodi:docname="boustrophedon_1.eps">
  <defs
     id="defs4" />
  <sodipodi:namedview
     id="base"
     pagecolor="#ffffff"
     bordercolor="#666666"
     borderopacity="1.0"
     inkscape:pageopacity="0.0"
     inkscape:pageshadow="2"
     inkscape:zoom="1.4"
     inkscape:cx="322.71556"
     inkscape:cy="671.11472"
     inkscape:document-units="px"
     inkscape:current-layer="g3006"
     showgrid="false"
     showguides="false"
     inkscape:guide-bbox="true"
     inkscape:window-width="1304"
     inkscape:window-height="745"
     inkscape:window-x="54"
     inkscape:window-y="-8"
     inkscape:window-maximized="1">
    <sodipodi:guide
       orientation="0,1"
       position="616.19305,525.27932"
       id="guide3022" />
  </sodipodi:namedview>
  <metadata
     id="metadata7">
    <rdf:RDF>
      <cc:Work
         rdf:about="">
        <dc:format>image/svg+xml</dc:format>
        <dc:type
           rdf:resource="http://purl.org/dc/dcmitype/StillImage" />
        <dc:title></dc:title>
      </cc:Work>
    </rdf:RDF>
  </metadata>
  <g
     inkscape:label="Layer 1"
     inkscape:groupmode="layer"
     id="layer1">
    <g
       id="g3006"
       transform="translate(-1.0101522,29.294424)">
      <path
         style="fill:#d3d3d3"
         d="m 335.51016,401.35738 c -1.925,-0.47216 -7.325,-1.35301 -12,-1.95743 -16.70418,-3.05406 -29.87281,-15.34085 -35.90685,-19.26527 -1.45585,-0.85998 -3.47277,-2.47608 -4.48205,-3.59133 -1.79246,-1.98065 -1.76283,-2.11534 1.27692,-5.80308 1.71159,-2.07645 3.11198,-4.4163 3.11198,-5.19966 0,-2.15907 6.33392,-10.12575 7.67522,-9.65374 12.08825,-18.23632 18.53966,-18.49817 30.32478,-22.45521 1.861,-2.17448 10.48561,-5.12066 11.6461,-3.97833 0.96394,0.94885 12.67229,-2.70864 13.18723,-4.11947 0.70586,-1.93391 11.16667,-0.44427 11.16667,1.59016 0,1.5308 13.30744,5.07423 13.77611,3.66823 0.42222,-1.26665 10.29164,1.31993 11.30739,2.96344 1.10012,1.78004 9.79431,3.22223 13.9165,3.37698 4.89441,0.18373 8.18278,1.53034 10.25324,3.55655 1.69815,1.66185 7.78484,9.75659 11.24676,10.20817 8.79514,5.54238 5.86211,6.7481 9.90256,12.32723 2.69641,2.63684 4.47935,4.93533 3.96208,5.10776 -3.47825,1.15941 -36.81755,21.34863 -36.62664,22.17992 0.13091,0.56997 -0.39165,0.79469 -1.16123,0.49937 -0.76959,-0.29531 -3.18714,0.64624 -5.37235,2.09234 -3.2486,2.14982 -7.59564,3.25311 -23.83876,6.05034 -20.10109,3.46162 -27.01867,3.95983 -33.36566,2.40303 z m 105.33617,-65.93679 c 0,-4.125 0.17651,-5.8125 0.39226,-3.75 0.21574,2.0625 0.21574,5.4375 0,7.5 -0.21575,2.0625 -0.39226,0.375 -0.39226,-3.75 z"
         id="path3020"
         inkscape:connector-curvature="0"
         sodipodi:nodetypes="sccsssccssssssscccccsssssss" />
      <path
         style="fill:#010101"
         d="m 176.51016,485.42059 c 0,-0.5641 2.83333,-1 6.5,-1 3.66667,0 6.5,0.4359 6.5,1 0,0.5641 -2.83333,1 -6.5,1 -3.66667,0 -6.5,-0.4359 -6.5,-1 z m 26,0 c 0,-0.5641 2.83333,-1 6.5,-1 3.66667,0 6.5,0.4359 6.5,1 0,0.5641 -2.83333,1 -6.5,1 -3.66667,0 -6.5,-0.4359 -6.5,-1 z m 26,0 c 0,-0.5641 2.83333,-1 6.5,-1 3.66667,0 6.5,0.4359 6.5,1 0,0.5641 -2.83333,1 -6.5,1 -3.66667,0 -6.5,-0.4359 -6.5,-1 z m 27,0 c 0,-0.55556 2.66667,-1 6,-1 3.33333,0 6,0.44444 6,1 0,0.55556 -2.66667,1 -6,1 -3.33333,0 -6,-0.44444 -6,-1 z m 25.5,0 c -0.38803,-0.62784 1.82295,-1 5.94098,-1 3.70601,0 6.55902,0.43497 6.55902,1 0,0.55445 -2.64699,1 -5.94098,1 -3.26754,0 -6.2191,-0.45 -6.55902,-1 z m 25.9375,-4.16667 c 0.0387,-3.19622 0.53922,-5.32557 1.3125,-5.58333 0.87879,-0.29293 1.25,0.94444 1.25,4.16667 l 0,4.58333 5,0 c 2.75,0 5,0.45 5,1 0,0.56106 -2.77083,1 -6.3125,1 l -6.3125,0 z m 26.0625,4.16667 c -0.3804,-0.6155 1.29569,-1 4.3592,-1 2.73747,0 5.68903,-0.27314 6.55901,-0.60699 1.03799,-0.39831 1.58179,-0.0545 1.58179,1 0,1.29566 -1.15098,1.60699 -5.94098,1.60699 -3.26754,0 -6.2191,-0.45 -6.55902,-1 z m 26,0 c -0.38803,-0.62784 1.82295,-1 5.94098,-1 3.70601,0 6.55902,0.43497 6.55902,1 0,0.55445 -2.64699,1 -5.94098,1 -3.26754,0 -6.2191,-0.45 -6.55902,-1 z m 25.5,0 c 0,-0.64615 11.5,-1 32.5,-1 21,0 32.5,0.35385 32.5,1 0,0.64615 -11.5,1 -32.5,1 -21,0 -32.5,-0.35385 -32.5,-1 z m 78,0 c 0,-0.5641 2.83333,-1 6.5,-1 3.66667,0 6.5,0.4359 6.5,1 0,0.5641 -2.83333,1 -6.5,1 -3.66667,0 -6.5,-0.4359 -6.5,-1 z m 26.85714,0 c 0,-0.55556 2.66667,-1 6,-1 3.33333,0 6,0.44444 6,1 0,0.55556 -2.66667,1 -6,1 -3.33333,0 -6,-0.44444 -6,-1 z m 26,0 c 0,-0.55556 2.66667,-1 6,-1 3.33333,0 6,0.44444 6,1 0,0.55556 -2.66667,1 -6,1 -3.33333,0 -6,-0.44444 -6,-1 z m -127.85714,-10.5 c 0,-3.66667 0.4359,-6.5 1,-6.5 0.5641,0 1,2.83333 1,6.5 0,3.66667 -0.4359,6.5 -1,6.5 -0.5641,0 -1,-2.83333 -1,-6.5 z m 145.85714,-3 c 0,-3.66667 0.4359,-6.5 1,-6.5 0.5641,0 1,2.83333 1,6.5 0,3.66667 -0.4359,6.5 -1,6.5 -0.5641,0 -1,-2.83333 -1,-6.5 z m -357.85714,-5.5 c 0,-3.33333 0.44444,-6 1,-6 0.55556,0 1,2.66667 1,6 0,3.33333 -0.44444,6 -1,6 -0.55556,0 -1,-2.66667 -1,-6 z m 102,-0.5 c 0,-3.66667 0.4359,-6.5 1,-6.5 0.5641,0 1,2.83333 1,6.5 0,3.66667 -0.4359,6.5 -1,6.5 -0.5641,0 -1,-2.83333 -1,-6.5 z m 161,0 c 0,-3.66667 0.4359,-6.5 1,-6.5 0.5641,0 1,2.83333 1,6.5 0,3.66667 -0.4359,6.5 -1,6.5 -0.5641,0 -1,-2.83333 -1,-6.5 z m -95,-2.5 c 0,-3.33333 0.44444,-6 1,-6 0.55556,0 1,2.66667 1,6 0,3.33333 -0.44444,6 -1,6 -0.55556,0 -1,-2.66667 -1,-6 z m -36.49814,-2.25 c -0.76466,-2.19543 0.0541,-11.10199 1.05113,-11.43433 0.53922,-0.17974 1.02384,2.53222 1.10472,6.18206 0.12909,5.82604 -0.99887,8.57409 -2.15585,5.25227 z m 80.49814,-12.25 c 0,-3.66667 0.4359,-6.5 1,-6.5 0.5641,0 1,2.83333 1,6.5 0,3.66667 -0.4359,6.5 -1,6.5 -0.5641,0 -1,-2.83333 -1,-6.5 z m 145.85714,-3 c 0,-3.66667 0.4359,-6.5 1,-6.5 0.5641,0 1,2.83333 1,6.5 0,3.66667 -0.4359,6.5 -1,6.5 -0.5641,0 -1,-2.83333 -1,-6.5 z m -357.85714,-6.05902 c 0,-4.11803 0.37216,-6.32901 1,-5.94098 0.55,0.33992 1,3.29148 1,6.55902 0,3.29399 -0.44555,5.94098 -1,5.94098 -0.56503,0 -1,-2.85301 -1,-6.55902 z m 102,0.059 c 0,-3.66667 0.4359,-6.5 1,-6.5 0.5641,0 1,2.83333 1,6.5 0,3.66667 -0.4359,6.5 -1,6.5 -0.5641,0 -1,-2.83333 -1,-6.5 z m 161,-0.49998 c 0,-3.33333 0.44444,-6 1,-6 0.55556,0 1,2.66667 1,6 0,3.33333 -0.44444,6 -1,6 -0.55556,0 -1,-2.66667 -1,-6 z m -95,-2 c 0,-3.33333 0.44444,-6 1,-6 0.55556,0 1,2.66667 1,6 0,3.33333 -0.44444,6 -1,6 -0.55556,0 -1,-2.66667 -1,-6 z m -37,-7.5 c 0,-3.66667 0.4359,-6.5 1,-6.5 0.5641,0 1,2.83333 1,6.5 0,3.66667 -0.4359,6.5 -1,6.5 -0.5641,0 -1,-2.83333 -1,-6.5 z m 81,-7 c 0,-3.66667 0.4359,-6.5 1,-6.5 0.5641,0 1,2.83333 1,6.5 0,3.66667 -0.4359,6.5 -1,6.5 -0.5641,0 -1,-2.83333 -1,-6.5 z m 145.85714,-3 c 0,-3.66667 0.4359,-6.5 1,-6.5 0.5641,0 1,2.83333 1,6.5 0,3.66667 -0.4359,6.5 -1,6.5 -0.5641,0 -1,-2.83333 -1,-6.5 z m -358.15923,-3.40282 c -0.63279,-5.34299 0.0373,-9.37886 1.41578,-8.52692 1.14183,0.70569 1.16196,12.14135 0.0226,12.8455 -0.47503,0.29359 -1.1223,-1.64978 -1.43838,-4.31858 z m 102.30209,-2.59718 c 0,-3.66667 0.4359,-6.5 1,-6.5 0.5641,0 1,2.83333 1,6.5 0,3.66667 -0.4359,6.5 -1,6.5 -0.5641,0 -1,-2.83333 -1,-6.5 z m 161,0 c 0,-3.66667 0.4359,-6.5 1,-6.5 0.5641,0 1,2.83333 1,6.5 0,3.66667 -0.4359,6.5 -1,6.5 -0.5641,0 -1,-2.83333 -1,-6.5 z m -95,-2.5 c 0,-3.33333 0.44444,-6 1,-6 0.55556,0 1,2.66667 1,6 0,3.33333 -0.44444,6 -1,6 -0.55556,0 -1,-2.66667 -1,-6 z m -37,-7.5 c 0,-5.11111 -0.32051,-6.5 -1.5,-6.5 -0.825,0 -1.3875,-0.3905 -1.25,-0.86777 0.1375,-0.47727 -0.875,-1.8123 -2.25,-2.96673 -1.375,-1.15443 -1.97203,-2.11393 -1.32673,-2.13223 0.64531,-0.0183 2.44531,1.01514 4,2.29654 1.5547,1.28139 3.68948,2.64614 4.74395,3.03278 1.46125,0.53579 1.63962,0.98057 0.75,1.87019 -0.64197,0.64197 -1.16722,3.55222 -1.16722,6.46722 0,2.915 -0.45,5.3 -1,5.3 -0.5641,0 -1,-2.83333 -1,-6.5 z m 42.44807,0.41597 c -0.7108,-1.1501 0.48971,-1.6115 6.19408,-2.38064 3.32322,-0.44809 5.37805,-0.31166 5.80902,0.38566 0.36678,0.59346 0.0778,1.10583 -0.64215,1.13862 -0.71996,0.0328 -3.46255,0.41388 -6.09464,0.84687 -2.63209,0.43299 -5.00193,0.43726 -5.26631,0.009 z m -19.6211,-1.28476 c -6.46317,-1.56455 -7.45167,-3.05085 -1.44912,-2.1789 5.85422,0.85041 7.62215,1.46615 7.62215,2.65468 0,1.02547 0.0421,1.02872 -6.17303,-0.47578 z m 57.96884,-1.88121 c -0.18881,-1.2375 -0.81787,-2.16324 -1.39792,-2.05721 -6.6402,1.21385 -11.39789,1.41659 -11.39789,0.4857 0,-0.59355 2.72424,-1.38739 6.05386,-1.76409 3.32963,-0.37671 7.60723,-1.47687 9.50579,-2.44481 1.89855,-0.96794 3.69969,-1.35899 4.00252,-0.86899 0.30283,0.48999 -0.59977,1.41504 -2.00578,2.05566 -1.86818,0.8512 -2.55639,1.92919 -2.55639,4.00426 0,3.36645 -1.71069,3.82395 -2.20419,0.58948 z m 145.85931,-4.35477 c -0.52918,-4.5328 0.15166,-9.39523 1.31552,-9.39523 0.48757,0 0.8865,2.925 0.8865,6.5 0,6.93164 -1.50048,8.90447 -2.20202,2.89523 z m -358.45284,-8.64523 c 0.16375,-3.4375 0.74772,-6.25 1.29772,-6.25 0.55,0 1.13397,2.8125 1.29772,6.25 0.24672,5.17945 0.0244,6.25 -1.29772,6.25 -1.32216,0 -1.54444,-1.07055 -1.29772,-6.25 z m 102.79772,-0.25 c 0,-3.66667 0.4359,-6.5 1,-6.5 0.5641,0 1,2.83333 1,6.5 0,3.66667 -0.4359,6.5 -1,6.5 -0.5641,0 -1,-2.83333 -1,-6.5 z m 161,0 c 0,-3.66667 0.4359,-6.5 1,-6.5 0.5641,0 1,2.83333 1,6.5 0,3.66667 -0.4359,6.5 -1,6.5 -0.5641,0 -1,-2.83333 -1,-6.5 z m -31.47251,-1.82054 c 5.78186,-3.8708 9.37191,-5.65124 9.84654,-4.88328 0.29282,0.47378 -1.69326,2.06346 -4.41349,3.53262 -5.08359,2.74557 -8.9538,3.70771 -5.43305,1.35066 z m -124.23673,-5.98698 c -4.37687,-3.31962 -5.07197,-5.11055 -3.00896,-7.75259 4.65511,-5.96165 5.81631,-7.17512 6.35276,-6.63867 0.3336,0.3336 -0.7977,2.37956 -2.51401,4.54657 -1.7163,2.16701 -3.12055,4.35144 -3.12055,4.85429 0,0.50284 1.78936,2.23809 3.97636,3.85609 3.70553,2.74146 5.03294,4.51923 3.27364,4.38431 -0.4125,-0.0316 -2.64416,-1.49413 -4.95924,-3.25 z m 145.70924,-5.80939 c 0,-0.53686 1.38369,-1.74268 3.07487,-2.6796 6.84482,-3.79205 6.85492,-3.83044 2.13852,-8.13129 -2.35763,-2.1499 -3.889,-4.15465 -3.40302,-4.455 0.48597,-0.30035 2.16163,0.78791 3.7237,2.41836 1.56206,1.63044 3.20592,2.96444 3.65302,2.96444 0.4471,0 0.81291,-2.025 0.81291,-4.5 0,-2.475 0.45,-4.5 1,-4.5 1.4473,0 1.23204,11.33143 -0.25,13.16007 -1.71912,2.12117 -10.75,6.92897 -10.75,5.72302 z m 103.85714,-6.38309 c 0,-5.11111 0.32051,-6.5 1.5,-6.5 1.17949,0 1.5,1.38889 1.5,6.5 0,5.11111 -0.32051,6.5 -1.5,6.5 -1.17949,0 -1.5,-1.38889 -1.5,-6.5 z m -357.85714,-6 c 0,-5.11111 0.32051,-6.5 1.5,-6.5 1.17949,0 1.5,1.38889 1.5,6.5 0,5.11111 -0.32051,6.5 -1.5,6.5 -1.17949,0 -1.5,-1.38889 -1.5,-6.5 z m 103,-0.5 c 0,-3.33333 0.44444,-6 1,-6 0.55556,0 1,2.66667 1,6 0,3.33333 -0.44444,6 -1,6 -0.55556,0 -1,-2.66667 -1,-6 z m 20.16646,-11.58226 c 3.46296,-4.82208 4.83354,-6.13404 4.83354,-4.62679 0,1.48962 -5.92504,9.20905 -7.06841,9.20905 -0.58072,0 0.42497,-2.06202 2.23487,-4.58226 z m 118.02693,-4.35108 c -2.31997,-2.16334 -3.8371,-4.16882 -3.37141,-4.45664 0.46569,-0.28781 2.81495,1.48219 5.22058,3.93334 5.40101,5.50323 3.93595,5.91783 -1.84917,0.5233 z m 116.66375,-3.56666 c 0,-5.11111 0.32051,-6.5 1.5,-6.5 1.17949,0 1.5,1.38889 1.5,6.5 0,5.11111 -0.32051,6.5 -1.5,6.5 -1.17949,0 -1.5,-1.38889 -1.5,-6.5 z m -357.19047,-0.16667 c -0.36667,-0.36666 -0.66667,-3.29166 -0.66667,-6.5 0,-4.51851 0.3381,-5.83333 1.5,-5.83333 1.17949,0 1.5,1.38889 1.5,6.5 0,5.9949 -0.62051,7.54616 -2.33333,5.83333 z m 102.33333,-6.33333 c 0,-3.33333 0.44444,-6 1,-6 0.55556,0 1,2.66667 1,6 0,3.33333 -0.44444,6 -1,6 -0.55556,0 -1,-2.66667 -1,-6 z m 161,0 c 0,-3.33333 0.44444,-6 1,-6 0.55556,0 1,2.66667 1,6 0,3.33333 -0.44444,6 -1,6 -0.55556,0 -1,-2.66667 -1,-6 z m -132,-3.5 c 0,-3.66667 0.4359,-6.5 1,-6.5 0.5641,0 1,2.83333 1,6.5 0,3.66667 -0.4359,6.5 -1,6.5 -0.5641,0 -1,-2.83333 -1,-6.5 z m 6.64622,4.73659 c -0.30584,-0.49487 1.82569,-1.65055 4.73674,-2.56818 6.06375,-1.91142 6.61704,-1.98055 6.61704,-0.8267 0,0.46294 -1.84684,1.39504 -4.10409,2.07133 -2.25725,0.67629 -4.68673,1.4532 -5.39885,1.72646 -0.71212,0.27327 -1.545,0.092 -1.85084,-0.40291 z m 78.60378,-1.49876 c -2.3375,-0.5621 -4.25,-1.40806 -4.25,-1.87991 0,-1.12434 0.8626,-1.08524 6.92371,0.31383 2.79196,0.64446 5.07629,1.54446 5.07629,2 0,1.02103 -2.21532,0.89699 -7.75,-0.43392 z m -24.5,-6.33774 c -2.6125,-0.80334 -4.75,-1.88287 -4.75,-2.39897 0,-0.51609 0.5625,-0.77145 1.25,-0.56745 0.6875,0.20399 3.3875,0.92335 6,1.59858 2.6125,0.67522 4.75,1.61919 4.75,2.09771 0,1.16846 -1.60048,1.00733 -7.25,-0.72987 z m -29.75,-0.30829 c 0,-0.4995 2.7,-1.82 6,-2.93442 7.54421,-2.54772 7.94128,-1.0274 0.46249,1.77077 -6.32676,2.36715 -6.46249,2.39158 -6.46249,1.16365 z m 71,-7.0918 c 0,-3.33333 0.44444,-6 1,-6 0.55556,0 1,2.66667 1,6 0,3.33333 -0.44444,6 -1,6 -0.55556,0 -1,-2.66667 -1,-6 z m -58,-4 c 0,-3.33333 0.44444,-6 1,-6 0.55556,0 1,2.66667 1,6 0,3.33333 -0.44444,6 -1,6 -0.55556,0 -1,-2.66667 -1,-6 z m 181.85714,-1.5 c 0,-5.11111 0.32051,-6.5 1.5,-6.5 1.17949,0 1.5,1.38889 1.5,6.5 0,5.11111 -0.32051,6.5 -1.5,6.5 -1.17949,0 -1.5,-1.38889 -1.5,-6.5 z m -357.19047,-0.16667 c -1.07166,-1.07165 -0.76729,-12.33333 0.33333,-12.33333 0.5641,0 1,2.83333 1,6.5 0,6.54615 -0.11544,7.05122 -1.33333,5.83333 z m 102.33333,-6.33333 c 0,-3.33333 0.44444,-6 1,-6 0.55556,0 1,2.66667 1,6 0,3.33333 -0.44444,6 -1,6 -0.55556,0 -1,-2.66667 -1,-6 z m 161,-0.5 c 0,-3.66667 0.4359,-6.5 1,-6.5 0.5641,0 1,2.83333 1,6.5 0,3.66667 -0.4359,6.5 -1,6.5 -0.5641,0 -1,-2.83333 -1,-6.5 z m -132,-3 c 0,-3.66667 0.4359,-6.5 1,-6.5 0.5641,0 1,2.83333 1,6.5 0,3.66667 -0.4359,6.5 -1,6.5 -0.5641,0 -1,-2.83333 -1,-6.5 z m 227.10932,-2 c -0.0111,-2.2 0.18461,-3.21775 0.4349,-2.26166 0.25029,0.95609 0.25937,2.75609 0.0202,4 -0.23921,1.24391 -0.444,0.46166 -0.4551,-1.73834 z M 175.3616,295.83726 c -0.60153,-23.95712 -0.41423,-44.09523 0.42009,-45.16667 1.1433,-1.46824 12.72847,-1.74121 12.72847,-0.2999 0,0.52255 -2.5875,1.08505 -5.75,1.25 l -5.75,0.2999 -0.0357,24.20234 c -0.0196,13.31129 -0.35713,24.52379 -0.75,24.91667 -0.39288,0.39288 -0.78118,-1.94818 -0.86289,-5.20234 z m 233.14856,-0.41667 c 0,-6.89096 1.62465,-8.15004 2.14931,-1.66569 0.42102,5.20355 0.0283,7.66569 -1.22263,7.66569 -0.50968,0 -0.92668,-2.7 -0.92668,-6 z m -58,-4 c 0,-3.33333 0.44444,-6 1,-6 0.55556,0 1,2.66667 1,6 0,3.33333 -0.44444,6 -1,6 -0.55556,0 -1,-2.66667 -1,-6 z m 181.85714,-2 c 0,-4.66667 0.33333,-6 1.5,-6 1.16667,0 1.5,1.33333 1.5,6 0,4.66667 -0.33333,6 -1.5,6 -1.16667,0 -1.5,-1.33333 -1.5,-6 z m -254.85714,-6 c 0,-3.33333 0.44444,-6 1,-6 0.55556,0 1,2.66667 1,6 0,3.33333 -0.44444,6 -1,6 -0.55556,0 -1,-2.66667 -1,-6 z m 161,-0.5 c 0,-3.66667 0.4359,-6.5 1,-6.5 0.5641,0 1,2.83333 1,6.5 0,3.66667 -0.4359,6.5 -1,6.5 -0.5641,0 -1,-2.83333 -1,-6.5 z m -132,-3 c 0,-3.66667 0.4359,-6.5 1,-6.5 0.5641,0 1,2.83333 1,6.5 0,3.66667 -0.4359,6.5 -1,6.5 -0.5641,0 -1,-2.83333 -1,-6.5 z m 102,-11.08333 c 0,-4.82223 0.33439,-6.47187 1.25,-6.16667 0.6875,0.22917 1.1375,0.71667 1,1.08333 -0.1375,0.36667 -0.25,3.14167 -0.25,6.16667 0,3.025 -0.45,5.5 -1,5.5 -0.5654,0 -1,-2.86111 -1,-6.58333 z m -58,-3.91667 c 0,-3.66667 0.4359,-6.5 1,-6.5 0.5641,0 1,2.83333 1,6.5 0,3.66667 -0.4359,6.5 -1,6.5 -0.5641,0 -1,-2.83333 -1,-6.5 z m 182.33313,4.29802 c -0.9188,-2.39434 -0.0941,-12.29802 1.02401,-12.29802 1.34845,0 1.87641,11.52359 0.58704,12.81297 -0.6953,0.69529 -1.20974,0.53085 -1.61105,-0.51495 z M 277.51016,257.03722 c 0,-5.77446 0.21463,-6.44088 2.25,-6.98634 3.65251,-0.97884 12.75,-0.71504 12.75,0.36971 0,0.5641 -2.83333,1 -6.5,1 l -6.5,0 0,6 c 0,3.33333 -0.44444,6 -1,6 -0.56223,0 -1,-2.79446 -1,-6.38337 z m 161,0.38337 c 0,-3.33333 -0.44444,-6 -1,-6 -0.55,0 -1,-0.45 -1,-1 0,-0.55556 2.66667,-1 6,-1 3.33333,0 6,0.44444 6,1 0,0.55 -1.8,1 -4,1 l -4,0 0,6 c 0,3.33333 -0.44444,6 -1,6 -0.55556,0 -1,-2.66667 -1,-6 z m -132,-2.5 0,-5.5 6,0 c 3.33333,0 6,0.44444 6,1 0,0.55 -2.25,1 -5,1 l -5,0 0,4.5 c 0,2.475 -0.45,4.5 -1,4.5 -0.55,0 -1,-2.475 -1,-5.5 z m 227.05209,-2 c -0.0204,-1.65 0.18706,-2.44606 0.46099,-1.76903 0.27392,0.67703 0.29059,2.02703 0.0371,3 -0.25359,0.97297 -0.47771,0.41903 -0.49809,-1.23097 z m -331.05209,-2.5 c 0,-0.55556 2.66667,-1 6,-1 3.33333,0 6,0.44444 6,1 0,0.55556 -2.66667,1 -6,1 -3.33333,0 -6,-0.44444 -6,-1 z m 26,0 c 0,-0.55556 2.66667,-1 6,-1 3.33333,0 6,0.44444 6,1 0,0.55556 -2.66667,1 -6,1 -3.33333,0 -6,-0.44444 -6,-1 z m 26,0 c 0,-0.55556 2.66667,-1 6,-1 3.33333,0 6,0.44444 6,1 0,0.55556 -2.66667,1 -6,1 -3.33333,0 -6,-0.44444 -6,-1 z m 78,0 c 0,-0.55556 2.66667,-1 6,-1 3.33333,0 6,0.44444 6,1 0,0.55556 -2.66667,1 -6,1 -3.33333,0 -6,-0.44444 -6,-1 z m 26,0 c 0,-0.55556 2.66667,-1 6,-1 3.33333,0 6,0.44444 6,1 0,0.55556 -2.66667,1 -6,1 -3.33333,0 -6,-0.44444 -6,-1 z m 26,0 c 0,-0.55556 2.66667,-1 6,-1 3.33333,0 6,0.44444 6,1 0,0.55556 -2.66667,1 -6,1 -3.33333,0 -6,-0.44444 -6,-1 z m 26,0 c 0,-0.5641 2.83333,-1 6.5,-1 3.66667,0 6.5,0.4359 6.5,1 0,0.5641 -2.83333,1 -6.5,1 -3.66667,0 -6.5,-0.4359 -6.5,-1 z m 52,0 c 0,-0.55556 2.66667,-1 6,-1 3.33333,0 6,0.44444 6,1 0,0.55556 -2.66667,1 -6,1 -3.33333,0 -6,-0.44444 -6,-1 z m 25.85714,0 c 0,-1.3069 11.69229,-1.3069 12.5,0 0.38803,0.62784 -1.82295,1 -5.94098,1 -3.70601,0 -6.55902,-0.43497 -6.55902,-1 z m 26,0 c 0,-0.5641 2.83333,-1 6.5,-1 3.66667,0 6.5,0.4359 6.5,1 0,0.5641 -2.83333,1 -6.5,1 -3.66667,0 -6.5,-0.4359 -6.5,-1 z"
         id="path3008"
         inkscape:connector-curvature="0"
         sodipodi:nodetypes="ssssssssssssssssssssssssscsscsssccsscssssssssssssssssssssssssssssssssssssssssssssssssssssssssssssssssssssssssssssssssssssssssssssssssssssssssssssscssssssssssssssssssssssssssscsscsccsssssssssssssssssssssssssssssssssssssssssscssssssssssssssssssssssssssssssscssssssscssscssssssssssssssscsssccssssssscssssssssssssssssssssssssssssssssssssssssssscscssscssccsssssssssssssssssssssssssssssssssssssssssssssssscssssssssscsssscssscsssccccsssssssssssssssssssssssssssssssssssssssssssssssss" />
      <flowRoot
         xml:space="preserve"
         id="flowRoot3024"
         style="font-size:56px;font-style:normal;font-weight:normal;line-height:125%;letter-spacing:0px;word-spacing:0px;fill:#000000;fill-opacity:1;stroke:none;font-family:Sans"
         transform="translate(13.153009,-53.580139)"><flowRegion
           id="flowRegion3026"><rect
             id="rect3028"
             width="124.28571"
             height="73.571426"
             x="182.85715"
             y="372.36218"
             style="font-size:56px" /></flowRegion><flowPara
           id="flowPara3030"
           style="font-size:56px;font-style:normal;font-variant:normal;font-weight:normal;font-stretch:normal;font-family:Arabic Typesetting;-inkscape-font-specification:Arabic Typesetting">Cell</flowPara></flowRoot>      <flowRoot
         xml:space="preserve"
         id="flowRoot3024-9"
         style="font-size:56px;font-style:normal;font-weight:normal;line-height:125%;letter-spacing:0px;word-spacing:0px;fill:#000000;fill-opacity:1;stroke:none;font-family:Sans"
         transform="translate(270.39492,-9.41615)"><flowRegion
           id="flowRegion3026-4"><rect
             id="rect3028-8"
             width="124.28571"
             height="73.571426"
             x="182.85715"
             y="372.36218"
             style="font-size:56px" /></flowRegion><flowPara
           id="flowPara3030-8"
           style="font-size:56px;font-style:normal;font-variant:normal;font-weight:normal;font-stretch:normal;font-family:Arabic Typesetting;-inkscape-font-specification:Arabic Typesetting">Cell</flowPara></flowRoot>    </g>
  </g>
</svg>
