<?xml version="1.0" encoding="UTF-8" standalone="no"?>
<!-- Created with Inkscape (http://www.inkscape.org/) -->

<svg
   xmlns:dc="http://purl.org/dc/elements/1.1/"
   xmlns:cc="http://creativecommons.org/ns#"
   xmlns:rdf="http://www.w3.org/1999/02/22-rdf-syntax-ns#"
   xmlns:svg="http://www.w3.org/2000/svg"
   xmlns="http://www.w3.org/2000/svg"
   xmlns:sodipodi="http://sodipodi.sourceforge.net/DTD/sodipodi-0.dtd"
   xmlns:inkscape="http://www.inkscape.org/namespaces/inkscape"
   width="601.85718"
   height="580.85718"
   id="svg2"
   version="1.1"
   inkscape:version="0.48.4 r9939"
   sodipodi:docname="various_coverages_1.svg">
  <defs
     id="defs4">
    <inkscape:perspective
       sodipodi:type="inkscape:persp3d"
       inkscape:vp_x="-68.690373 : 524.16078 : 1"
       inkscape:vp_y="0 : 1000 : 0"
       inkscape:vp_z="-1383.2868 : 503.95774 : 1"
       inkscape:persp3d-origin="372.04724 : 350.78739 : 1"
       id="perspective3899" />
  </defs>
  <sodipodi:namedview
     id="base"
     pagecolor="#ffffff"
     bordercolor="#666666"
     borderopacity="1.0"
     inkscape:pageopacity="0.0"
     inkscape:pageshadow="2"
     inkscape:zoom="0.49497475"
     inkscape:cx="34.156842"
     inkscape:cy="204.7342"
     inkscape:document-units="px"
     inkscape:current-layer="layer1"
     showgrid="false"
     inkscape:window-width="1304"
     inkscape:window-height="745"
     inkscape:window-x="54"
     inkscape:window-y="248"
     inkscape:window-maximized="1"
     inkscape:snap-page="true"
     fit-margin-top="0"
     fit-margin-left="0"
     fit-margin-right="0"
     fit-margin-bottom="0" />
  <metadata
     id="metadata7">
    <rdf:RDF>
      <cc:Work
         rdf:about="">
        <dc:format>image/svg+xml</dc:format>
        <dc:type
           rdf:resource="http://purl.org/dc/dcmitype/StillImage" />
        <dc:title />
      </cc:Work>
    </rdf:RDF>
  </metadata>
  <g
     inkscape:label="Layer 1"
     inkscape:groupmode="layer"
     id="layer1"
     transform="translate(-57.714275,-114.21932)">
    <rect
       style="fill:none;stroke:#000000;stroke-width:2;stroke-linecap:butt;stroke-linejoin:miter;stroke-miterlimit:4;stroke-opacity:1;stroke-dasharray:none"
       id="rect2987"
       width="271.42856"
       height="260"
       x="60"
       y="115.21932" />
    <rect
       style="fill:none;stroke:#000000;stroke-width:2;stroke-linecap:butt;stroke-linejoin:miter;stroke-miterlimit:4;stroke-opacity:1;stroke-dasharray:none"
       id="rect2987-1"
       width="271.42856"
       height="260"
       x="387.14288"
       y="115.79076" />
    <rect
       style="fill:none;stroke:#000000;stroke-width:2;stroke-linecap:butt;stroke-linejoin:miter;stroke-miterlimit:4;stroke-opacity:1;stroke-dasharray:none"
       id="rect2987-7"
       width="271.42856"
       height="260"
       x="58.714275"
       y="433.50504" />
    <rect
       style="fill:none;stroke:#000000;stroke-width:2;stroke-linecap:butt;stroke-linejoin:miter;stroke-miterlimit:4;stroke-opacity:1;stroke-dasharray:none"
       id="rect2987-1-4"
       width="271.42856"
       height="260"
       x="385.85715"
       y="434.07648" />
    <path
       style="fill:none;stroke:#000000;stroke-width:1.0197016px;stroke-linecap:butt;stroke-linejoin:miter;stroke-opacity:1"
       d="m 420.6614,150.36651 208.41068,-0.68775 0,190.8299 -208.31049,0 0,-160.23885 174.80601,0 0,129.64779 -142.75824,0 0,-100.51346 107.79705,0 0,72.83584 -75.74928,0 0,-45.15821 45.15822,0 0,24.76418"
       id="path3798"
       inkscape:connector-curvature="0"
       sodipodi:nodetypes="ccccccccccccccc" />
    <g
       id="g3887"
       transform="matrix(0.97332571,0,0,0.97332571,8.120606,3.8983914)">
      <path
         inkscape:connector-curvature="0"
         id="path3800"
         d="m 80,146.6479 225.71429,0 0,40"
         style="fill:none;stroke:#000000;stroke-width:1px;stroke-linecap:butt;stroke-linejoin:miter;stroke-opacity:1" />
      <path
         inkscape:connector-curvature="0"
         id="path3800-0"
         d="m 306.21937,187.1562 -225.714296,0 0,40"
         style="fill:none;stroke:#000000;stroke-width:1px;stroke-linecap:butt;stroke-linejoin:miter;stroke-opacity:1" />
      <path
         inkscape:connector-curvature="0"
         id="path3800-9"
         d="m 79.999998,227.63004 225.714292,0 0,40"
         style="fill:none;stroke:#000000;stroke-width:1px;stroke-linecap:butt;stroke-linejoin:miter;stroke-opacity:1" />
      <path
         inkscape:connector-curvature="0"
         id="path3800-0-4"
         d="m 306.2147,268.06712 -225.7143,0 0,40"
         style="fill:none;stroke:#000000;stroke-width:1px;stroke-linecap:butt;stroke-linejoin:miter;stroke-opacity:1" />
      <path
         inkscape:connector-curvature="0"
         id="path3800-8"
         d="m 79.999998,308.50972 225.714292,0 0,40"
         style="fill:none;stroke:#000000;stroke-width:1px;stroke-linecap:butt;stroke-linejoin:miter;stroke-opacity:1" />
      <path
         sodipodi:nodetypes="cc"
         inkscape:connector-curvature="0"
         id="path3800-0-8"
         d="m 306.21937,349.01802 -225.714298,0"
         style="fill:none;stroke:#000000;stroke-width:1px;stroke-linecap:butt;stroke-linejoin:miter;stroke-opacity:1" />
    </g>
    <path
       style="fill:none;stroke:#000000;stroke-width:1px;stroke-linecap:butt;stroke-linejoin:miter;stroke-opacity:1"
       d="M 303.04576,460.41279 163.64471,615.97628 155.56349,474.55493 82.832509,450.31127 254.55844,605.87476 210.11173,450.31127 70.710678,654.36208 286.88332,666.48391 92.934034,529.10316 292.94424,555.36713 276.7818,626.07781"
       id="path3895"
       inkscape:connector-curvature="0" />
    <path
       sodipodi:type="spiral"
       style="fill:none;stroke:#000000;stroke-width:1px;stroke-linecap:butt;stroke-linejoin:miter;stroke-opacity:1"
       id="path3935"
       sodipodi:cx="-773.77686"
       sodipodi:cy="219.99649"
       sodipodi:expansion="1"
       sodipodi:revolution="4"
       sodipodi:radius="166.59863"
       sodipodi:argument="-24.450424"
       sodipodi:t0="0.118"
       d="m -790.96838,210.46163 c 2.61951,-14.30046 18.89622,-20.59791 31.77663,-16.76234 19.18888,5.71412 27.24307,28.002 20.81778,45.93256 -8.6352,24.09752 -37.14691,33.95334 -60.08849,24.8732 -29.022,-11.48674 -40.6961,-46.30935 -28.92863,-74.24441 14.30396,-33.9565 55.48139,-47.45734 88.40033,-32.98407 38.89747,17.10181 54.23006,64.65935 37.0395,102.55626 -19.88769,43.84278 -73.84122,61.01041 -116.71218,41.09494 -48.79114,-22.66566 -67.79606,-83.02585 -45.15037,-130.86811 25.43813,-53.7417 92.21246,-74.585551 145.02403,-49.2058 58.69391,28.20662 81.37792,101.40058 53.26124,159.17995 -30.97217,63.64737 -110.58986,88.17248 -173.33589,57.31667 -68.60181,-33.73543 -94.96876,-119.78005 -61.3721,-187.49181 36.49694,-73.557043 128.97098,-101.766427 201.64774,-65.427531 78.51291,39.257011 108.56521,138.162501 69.48296,215.803661 -4.38098,8.70331 -9.53279,17.01715 -15.37154,24.81762"
       transform="matrix(0.79046853,0,0,0.79046853,1125.4338,396.06655)" />
  </g>
</svg>
